<svg width="673" height="594" viewBox="0 0 673 594" fill="none" xmlns="http://www.w3.org/2000/svg">
<path d="M110 199L205.263 445.75H14.7372L110 199Z" fill="#1381CF"/>
<path d="M110 199L205.263 445.75H14.7372L110 199Z" fill="#1381CF"/>
<path d="M110 199L205.263 445.75H14.7372L110 199Z" fill="#1381CF"/>
<path d="M110 199L205.263 445.75H14.7372L110 199Z" fill="#1381CF"/>
<path d="M184 223L279.263 434.5H88.7372L184 223Z" fill="#1381CF"/>
<path d="M184 223L279.263 434.5H88.7372L184 223Z" fill="#1381CF"/>
<path d="M446.5 0L642.655 445.5H250.345L446.5 0Z" fill="#1381CF"/>
<path d="M446.5 0L642.655 445.5H250.345L446.5 0Z" fill="#1381CF"/>
<path d="M261 199L356.263 445.75H165.737L261 199Z" fill="#1381CF"/>
<path d="M261 199L356.263 445.75H165.737L261 199Z" fill="#1381CF"/>
</svg>
