<?xml version="1.0" standalone="no"?><svg xmlns="http://www.w3.org/2000/svg" viewBox="0 0 1440 320"><path fill="#9cc6e3" fill-opacity="1" d="M0,256L24,224C48,192,96,128,144,122.7C192,117,240,171,288,160C336,149,384,75,432,69.3C480,64,528,128,576,149.3C624,171,672,149,720,165.3C768,181,816,235,864,234.7C912,235,960,181,1008,154.7C1056,128,1104,128,1152,144C1200,160,1248,192,1296,197.3C1344,203,1392,181,1416,170.7L1440,160L1440,320L1416,320C1392,320,1344,320,1296,320C1248,320,1200,320,1152,320C1104,320,1056,320,1008,320C960,320,912,320,864,320C816,320,768,320,720,320C672,320,624,320,576,320C528,320,480,320,432,320C384,320,336,320,288,320C240,320,192,320,144,320C96,320,48,320,24,320L0,320Z"></path></svg>