<?xml version="1.0" standalone="no"?><svg xmlns="http://www.w3.org/2000/svg" viewBox="0 0 1440 320"><path fill="#bdd9ec" fill-opacity="1" d="M0,224L24,234.7C48,245,96,267,144,261.3C192,256,240,224,288,197.3C336,171,384,149,432,149.3C480,149,528,171,576,192C624,213,672,235,720,213.3C768,192,816,128,864,101.3C912,75,960,85,1008,96C1056,107,1104,117,1152,149.3C1200,181,1248,235,1296,229.3C1344,224,1392,160,1416,128L1440,96L1440,320L1416,320C1392,320,1344,320,1296,320C1248,320,1200,320,1152,320C1104,320,1056,320,1008,320C960,320,912,320,864,320C816,320,768,320,720,320C672,320,624,320,576,320C528,320,480,320,432,320C384,320,336,320,288,320C240,320,192,320,144,320C96,320,48,320,24,320L0,320Z"></path></svg>